<svg width="89" height="80" viewBox="0 0 89 80" fill="none" xmlns="http://www.w3.org/2000/svg">
<path fill-rule="evenodd" clip-rule="evenodd" d="M0 4.52233C0 2.02472 1.99233 0 4.45 0H13.35C15.6515 0 17.5733 1.78354 17.7817 4.1129L18.6274 13.567H84.55C85.84 13.567 87.0665 14.1359 87.9117 15.1263C88.757 16.1167 89.1377 17.4311 88.9552 18.7289L85.5206 43.1624C84.6318 49.4849 79.5244 54.3213 73.2559 54.7763L26.8243 58.1468C19.5704 58.6733 13.2364 53.2027 12.5779 45.8425L9.28619 9.04466H4.45C1.99233 9.04466 0 7.01995 0 4.52233ZM19.4365 22.6117L21.4414 45.0237C21.6609 47.4771 23.7722 49.3006 26.1902 49.1251L72.6218 45.7546C74.7113 45.6029 76.4138 43.9908 76.71 41.8833L79.4191 22.6117H19.4365Z" fill="#DCDCE4"/>
<path d="M37.0833 72.7273C37.0833 76.7439 33.7628 80 29.6667 80C25.5706 80 22.25 76.7439 22.25 72.7273C22.25 68.7107 25.5706 65.4546 29.6667 65.4546C33.7628 65.4546 37.0833 68.7107 37.0833 72.7273Z" fill="#DCDCE4"/>
<path d="M77.8753 72.7273C77.8753 76.7439 74.5548 80 70.4587 80C66.3625 80 63.042 76.7439 63.042 72.7273C63.042 68.7107 66.3625 65.4546 70.4587 65.4546C74.5548 65.4546 77.8753 68.7107 77.8753 72.7273Z" fill="#DCDCE4"/>
</svg>
