<svg width="96" height="85" viewBox="0 0 96 85" fill="none" xmlns="http://www.w3.org/2000/svg">
<path fill-rule="evenodd" clip-rule="evenodd" d="M48 5.76768C36.1859 -2.8281 19.517 -1.81593 8.8462 8.80419C-2.94873 20.5431 -2.94873 39.5757 8.8462 51.3146L37.3217 79.6549C43.2192 85.5243 52.7808 85.5243 58.6783 79.6549L87.1538 51.3146C98.9487 39.5757 98.9487 20.5431 87.1538 8.80419C76.483 -1.81593 59.8141 -2.8281 48 5.76768ZM44.4406 15.8893C36.5773 8.06331 23.8284 8.06331 15.9651 15.8893C8.10178 23.7152 8.10178 36.4036 15.9651 44.2295L44.4406 72.5698C46.4064 74.5263 49.5936 74.5263 51.5594 72.5698L80.0349 44.2295C87.8982 36.4036 87.8982 23.7152 80.0349 15.8893C72.1716 8.06331 59.4227 8.06331 51.5594 15.8893C49.5936 17.8457 46.4064 17.8457 44.4406 15.8893Z" fill="#DCDCE4"/>
</svg>
