<svg width="32" height="29" viewBox="0 0 32 29" fill="none" xmlns="http://www.w3.org/2000/svg">
<path fill-rule="evenodd" clip-rule="evenodd" d="M0 1.63935C0 0.73396 0.716344 0 1.6 0H4.8C5.62752 0 6.31851 0.646534 6.39343 1.49093L6.6975 4.91804H30.4C30.8638 4.91804 31.3048 5.12427 31.6087 5.48328C31.9126 5.8423 32.0495 6.31877 31.9839 6.78922L30.749 15.6464C30.4294 17.9383 28.593 19.6915 26.3392 19.8564L9.64468 21.0782C7.03656 21.2691 4.75914 19.286 4.52241 16.6179L3.33886 3.27869H1.6C0.716344 3.27869 0 2.54473 0 1.63935ZM6.98841 8.19673L7.70927 16.3211C7.78818 17.2104 8.54732 17.8715 9.41669 17.8079L26.1112 16.5861C26.8625 16.5311 27.4746 15.9467 27.5811 15.1827L28.5552 8.19673H6.98841Z" fill="#44392E"/>
<path d="M13.3333 26.3636C13.3333 27.8197 12.1394 29 10.6667 29C9.19391 29 8 27.8197 8 26.3636C8 24.9076 9.19391 23.7273 10.6667 23.7273C12.1394 23.7273 13.3333 24.9076 13.3333 26.3636Z" fill="#44392E"/>
<path d="M28.0001 26.3636C28.0001 27.8197 26.8062 29 25.3334 29C23.8607 29 22.6667 27.8197 22.6667 26.3636C22.6667 24.9076 23.8607 23.7273 25.3334 23.7273C26.8062 23.7273 28.0001 24.9076 28.0001 26.3636Z" fill="#44392E"/>
</svg>
