<svg width="32" height="29" viewBox="0 0 32 29" fill="none" xmlns="http://www.w3.org/2000/svg">
<path fill-rule="evenodd" clip-rule="evenodd" d="M16 2.90356C12.062 0.0383019 6.50567 0.375693 2.94873 3.91573C-0.982911 7.82871 -0.982911 14.1729 2.94873 18.0859L12.4406 27.5326C14.4064 29.4891 17.5936 29.4891 19.5594 27.5326L29.0513 18.0859C32.9829 14.1729 32.9829 7.82871 29.0513 3.91573C25.4943 0.375693 19.938 0.0383019 16 2.90356ZM14.8135 6.27742C12.1924 3.66877 7.94279 3.66877 5.32169 6.27742C2.70059 8.88607 2.70059 13.1155 5.32169 15.7242L14.8135 25.1709C15.4688 25.8231 16.5312 25.8231 17.1865 25.1709L26.6783 15.7242C29.2994 13.1155 29.2994 8.88607 26.6783 6.27742C24.0572 3.66877 19.8076 3.66877 17.1865 6.27742C16.5312 6.92959 15.4688 6.92959 14.8135 6.27742Z" fill="#44392E"/>
</svg>
