<svg width="24" height="21" viewBox="0 0 24 21" fill="none" xmlns="http://www.w3.org/2000/svg">
<path fill-rule="evenodd" clip-rule="evenodd" d="M12 1.44094C9.04647 -0.706546 4.87925 -0.453675 2.21155 2.19956C-0.737184 5.1323 -0.737183 9.88721 2.21155 12.82L9.33042 19.9002C10.8048 21.3666 13.1952 21.3666 14.6696 19.9002L21.7885 12.82C24.7372 9.88721 24.7372 5.1323 21.7885 2.19956C19.1208 -0.453675 14.9535 -0.706546 12 1.44094ZM11.1101 3.96962C9.14432 2.01446 5.95709 2.01446 3.99127 3.96962C2.02545 5.92478 2.02545 9.09473 3.99127 11.0499L11.1101 18.1302C11.6016 18.6189 12.3984 18.6189 12.8899 18.1302L20.0087 11.0499C21.9746 9.09473 21.9746 5.92478 20.0087 3.96962C18.0429 2.01446 14.8557 2.01446 12.8899 3.96962C12.3984 4.45841 11.6016 4.45841 11.1101 3.96962Z" fill="#44392E"/>
</svg>
