<svg width="24" height="24" viewBox="0 0 24 24" fill="none" xmlns="http://www.w3.org/2000/svg">
<path d="M4.2 24L19.8 24C22.1196 24 24 22.1196 24 19.8L24 4.2C24 1.8804 22.1196 0 19.8 0L4.2 0C1.8804 0 0 1.8804 0 4.2L0 19.8C0 22.1196 1.8804 24 4.2 24Z" fill="url(#paint0_radial_41_10)"/>
<path d="M16.5 21H7.5C6.30653 21 5.16193 20.5259 4.31802 19.682C3.47411 18.8381 3 17.6935 3 16.5V7.5C3 6.30653 3.47411 5.16193 4.31802 4.31802C5.16193 3.47411 6.30653 3 7.5 3H16.5C17.6935 3 18.8381 3.47411 19.682 4.31802C20.5259 5.16193 21 6.30653 21 7.5V16.5C21 17.6935 20.5259 18.8381 19.682 19.682C18.8381 20.5259 17.6935 21 16.5 21ZM7.5 4.8C6.78422 4.80099 6.09804 5.08577 5.59191 5.59191C5.08577 6.09804 4.80099 6.78422 4.8 7.5V16.5C4.80099 17.2158 5.08577 17.902 5.59191 18.4081C6.09804 18.9142 6.78422 19.199 7.5 19.2H16.5C17.2158 19.199 17.902 18.9142 18.4081 18.4081C18.9142 17.902 19.199 17.2158 19.2 16.5V7.5C19.199 6.78422 18.9142 6.09804 18.4081 5.59191C17.902 5.08577 17.2158 4.80099 16.5 4.8H7.5Z" fill="white"/>
<path d="M12 17.0999C10.9913 17.0999 10.0053 16.8008 9.16662 16.2404C8.32793 15.68 7.67425 14.8835 7.28824 13.9516C6.90223 13.0197 6.80124 11.9942 6.99802 11.0049C7.19481 10.0156 7.68053 9.10691 8.39378 8.39366C9.10703 7.68041 10.0158 7.19468 11.0051 6.9979C11.9944 6.80112 13.0198 6.90211 13.9517 7.28812C14.8836 7.67413 15.6801 8.32781 16.2405 9.1665C16.8009 10.0052 17.1 10.9912 17.1 11.9999C17.099 13.3522 16.5614 14.6488 15.6052 15.6051C14.649 16.5613 13.3523 17.0989 12 17.0999ZM12 8.6999C11.3473 8.6999 10.7093 8.89345 10.1666 9.25605C9.62396 9.61866 9.20099 10.1341 8.95122 10.737C8.70145 11.34 8.6361 12.0036 8.76344 12.6437C8.89077 13.2838 9.20506 13.8718 9.66657 14.3334C10.1281 14.7949 10.7161 15.1092 11.3562 15.2365C11.9964 15.3638 12.6599 15.2985 13.2629 15.0487C13.8659 14.7989 14.3813 14.376 14.7439 13.8333C15.1065 13.2906 15.3 12.6526 15.3 11.9999C15.299 11.125 14.951 10.2862 14.3324 9.66755C13.7137 9.04889 12.8749 8.7009 12 8.6999Z" fill="white"/>
<path d="M17.1 8.10005C17.597 8.10005 18 7.69711 18 7.20005C18 6.70299 17.597 6.30005 17.1 6.30005C16.6029 6.30005 16.2 6.70299 16.2 7.20005C16.2 7.69711 16.6029 8.10005 17.1 8.10005Z" fill="white"/>
<defs>
<radialGradient id="paint0_radial_41_10" cx="0" cy="0" r="1" gradientUnits="userSpaceOnUse" gradientTransform="translate(-0.482811 23.5125) rotate(180) scale(55.4231)">
<stop stop-color="#F9ED32"/>
<stop offset="0.36" stop-color="#EE2A7B"/>
<stop offset="0.44" stop-color="#D22A8A"/>
<stop offset="0.6" stop-color="#8B2AB2"/>
<stop offset="0.83" stop-color="#1B2AF0"/>
<stop offset="0.88" stop-color="#002AFF"/>
</radialGradient>
</defs>
</svg>
