<svg width="204" height="61" viewBox="0 0 204 61" fill="none" xmlns="http://www.w3.org/2000/svg">
<path fill-rule="evenodd" clip-rule="evenodd" d="M177.715 49.4568H188.391V41.7347H177.715V40.8989H188.391V33.1768H169.821V57.9848H188.391V50.2927H177.715V49.4568ZM168.664 33.137H160.8V45.0783L143.237 31.4354V57.9848H151.101V47.3173L168.674 61V33.137H168.664ZM134.664 45.546C134.683 46.2918 134.541 47.0329 134.249 47.7195C133.957 48.4061 133.521 49.0222 132.97 49.5264C131.902 50.5623 130.472 51.1417 128.983 51.1417C127.494 51.1417 126.063 50.5623 124.996 49.5264C124.469 49.0146 124.051 48.4026 123.765 47.7267C123.479 47.0507 123.332 46.3245 123.332 45.5908C123.332 44.8571 123.479 44.1308 123.765 43.4549C124.051 42.7789 124.469 42.167 124.996 41.6551C126.063 40.6193 127.494 40.0398 128.983 40.0398C130.472 40.0398 131.902 40.6193 132.97 41.6551C133.514 42.1519 133.946 42.7582 134.238 43.434C134.53 44.1099 134.676 44.8399 134.664 45.5759V45.546ZM142.489 45.546C142.514 43.7955 142.173 42.0591 141.486 40.4482C140.799 38.8374 139.783 37.3876 138.502 36.192C137.267 34.9225 135.784 33.9195 134.145 33.2451C132.506 32.5707 130.745 32.2393 128.973 32.2713C127.197 32.2451 125.434 32.5791 123.79 33.2531C122.147 33.927 120.658 34.9268 119.414 36.192C118.138 37.3914 117.124 38.8419 116.438 40.4518C115.752 42.0618 115.407 43.7964 115.427 45.546C115.41 47.3011 115.756 49.0407 116.442 50.6567C117.128 52.2728 118.139 53.7307 119.414 54.9398C120.665 56.194 122.156 57.1847 123.798 57.853C125.44 58.5214 127.2 58.8538 128.973 58.8307C130.75 58.8646 132.516 58.5371 134.163 57.8682C135.81 57.1993 137.303 56.203 138.552 54.9398C139.831 53.7347 140.846 52.2776 141.533 50.6606C142.219 49.0436 142.562 47.302 142.539 45.546H142.489Z" fill="#EEC84A"/>
<path fill-rule="evenodd" clip-rule="evenodd" d="M116.393 33.137H97.5644V40.8292H103.067V57.9848H110.891V40.8292H116.393V33.137Z" fill="#44392E"/>
<path fill-rule="evenodd" clip-rule="evenodd" d="M100.335 48.1532C100.353 46.7426 100.076 45.3438 99.5236 44.0454C98.9711 42.747 98.1546 41.5773 97.1258 40.6103C96.8927 40.3536 96.6319 40.1233 96.3483 39.9237V33.137H89.4406C87.835 33.1184 86.2876 33.7368 85.1382 34.8562C83.9889 35.9757 83.3315 37.5047 83.3105 39.1077C83.3945 40.4452 83.9535 41.709 84.8871 42.6721C85.8207 43.6351 87.0677 44.2342 88.404 44.3618C92.2814 45.0485 92.3911 47.0785 92.3911 48.0935C92.3978 48.4874 92.3251 48.8786 92.1772 49.2438C92.0293 49.6091 91.8093 49.9409 91.5303 50.2194C91.2512 50.498 90.9189 50.7176 90.553 50.8653C90.1872 51.0129 89.7953 51.0855 89.4008 51.0788C89.0099 51.0834 88.622 51.0091 88.2606 50.8604C87.8992 50.7116 87.5716 50.4914 87.2976 50.2131L81.7356 55.7259C83.7874 57.7466 86.5536 58.8794 89.4357 58.8794C92.3177 58.8794 95.084 57.7466 97.1357 55.7259C98.3866 54.511 99.312 53.0021 99.827 51.3375C100.167 50.3102 100.338 49.235 100.335 48.1532Z" fill="#44392E"/>
<path d="M203.86 29.2064H62.129V31.4752H203.86V29.2064Z" fill="#44392E"/>
<path fill-rule="evenodd" clip-rule="evenodd" d="M35.3456 60.592H35.226C32.2756 58.0512 29.3284 55.5103 26.3846 52.9695L2.63149 32.5798L0 30.3109L3.22955 27.5346L35.0267 0.169168C35.083 0.115804 35.1362 0.0593256 35.1862 0L35.3058 0C35.4397 0.113304 35.5794 0.219592 35.7244 0.318434L48.513 8.14992C48.8818 8.36884 49.1609 8.56786 49.1609 9.08532C49.1609 23.2225 49.1609 37.3563 49.1609 51.4868C49.1758 51.6608 49.1381 51.8353 49.0529 51.9878C48.9676 52.1403 48.8386 52.2638 48.6825 52.3426C45.752 54.1338 42.8148 55.925 39.871 57.7162C38.3459 58.6516 36.8807 59.6168 35.3257 60.5622L35.3456 60.592ZM36.7511 44.3718C36.7511 48.6308 36.7511 52.7605 36.7511 56.9997L46.978 50.6808L36.7611 44.3718H36.7511ZM34.4087 57.0096C34.4087 56.7011 34.4087 56.5121 34.4087 56.323C34.4087 52.4023 34.4087 48.4716 34.4087 44.5509C34.4333 44.3596 34.3858 44.1659 34.2752 44.0077C34.1646 43.8495 33.999 43.738 33.8106 43.6951C26.0557 40.6434 18.3041 37.5818 10.5558 34.5103L7.0173 33.1171L6.97743 33.2465L34.4186 57.0096H34.4087ZM46.9481 47.7651C46.9481 43.1279 46.9481 38.6201 46.9481 33.963L38.7646 42.7896L46.9481 47.7651ZM34.3788 41.267C34.3788 33.9033 34.3788 26.6489 34.3788 19.315L6.66843 30.2612L34.3987 41.2073L34.3788 41.267ZM36.7411 19.3747C36.7411 26.7385 36.7411 33.9431 36.7411 41.267L46.968 30.3209L36.7212 19.3747H36.7411ZM6.97743 27.3754C7.12794 27.4347 7.2954 27.4347 7.44591 27.3754L34.0199 16.8272C34.16 16.7876 34.2804 16.6974 34.3577 16.5743C34.435 16.4511 34.4639 16.3037 34.4386 16.1605C34.4386 12.1801 34.4386 8.17645 34.4386 4.14959C34.4386 4.02023 34.4386 3.88091 34.4386 3.58238L6.97743 27.3754ZM46.9381 26.7285V12.9364L38.7546 17.9119L46.9381 26.6788V26.7285ZM36.7312 3.59233C36.7312 7.86134 36.7312 12.001 36.7312 16.2103L46.968 9.95106L36.7312 3.59233Z" fill="#44392E"/>
<path fill-rule="evenodd" clip-rule="evenodd" d="M36.7711 56.9997C36.7711 52.7605 36.7711 48.6308 36.7711 44.3718L47.0079 50.6808L36.7711 56.9997Z" fill="#F1ED7E"/>
<path fill-rule="evenodd" clip-rule="evenodd" d="M34.4585 56.323C34.4585 56.5121 34.4585 56.7011 34.4585 57.0096L6.97743 33.2465L7.04721 33.1171L10.5858 34.5103C18.3473 37.5752 26.1155 40.6368 33.8904 43.6951C34.0787 43.738 34.2444 43.8495 34.3549 44.0077C34.4655 44.1659 34.5131 44.3596 34.4884 44.5509C34.4386 48.4716 34.4486 52.4023 34.4585 56.323Z" fill="#E8A344"/>
<path fill-rule="evenodd" clip-rule="evenodd" d="M46.9381 34.0028C46.9381 38.6599 46.9381 43.1777 46.9381 47.8049L38.7646 42.7896L46.9381 34.0028Z" fill="#E8C84B"/>
<path fill-rule="evenodd" clip-rule="evenodd" d="M34.3688 19.315C34.3688 26.6489 34.3688 33.9033 34.3688 41.2671L6.63852 30.3209L34.3688 19.315Z" fill="#EEC84A"/>
<path fill-rule="evenodd" clip-rule="evenodd" d="M36.7611 41.2471C36.7611 33.9132 36.7611 26.7086 36.7611 19.3548L47.0079 30.301L36.7611 41.2471Z" fill="#F1ED80"/>
<path fill-rule="evenodd" clip-rule="evenodd" d="M7.45587 27.3455C7.30536 27.4048 7.13789 27.4048 6.98738 27.3455L34.3887 3.57243C34.3887 3.87096 34.3887 4.01027 34.3887 4.13964C34.3887 8.12006 34.3887 12.1237 34.3887 16.1506C34.414 16.2937 34.3852 16.4411 34.3078 16.5643C34.2305 16.6875 34.1102 16.7776 33.9701 16.8173L7.45587 27.3455Z" fill="#F1ED7E"/>
<path fill-rule="evenodd" clip-rule="evenodd" d="M46.9282 12.9364V26.7186L38.7546 17.9119L46.9282 12.9364Z" fill="#EAC649"/>
<path fill-rule="evenodd" clip-rule="evenodd" d="M36.7411 16.2202C36.7411 12.001 36.7411 7.86133 36.7411 3.60228L46.968 9.95106L36.7411 16.2202Z" fill="#EAC649"/>
<path fill-rule="evenodd" clip-rule="evenodd" d="M196.943 19.2852L196.803 19.3847C195.287 20.3965 193.504 20.9366 191.68 20.9366C189.856 20.9366 188.073 20.3965 186.556 19.3847C185.912 18.9859 185.378 18.4331 185.002 17.7763C184.626 17.1195 184.421 16.3794 184.403 15.6232C184.433 14.8803 184.644 14.1561 185.02 13.5141C185.395 12.8721 185.923 12.332 186.556 11.9413C188.073 10.9294 189.856 10.3893 191.68 10.3893C193.504 10.3893 195.287 10.9294 196.803 11.9413L196.893 12.0109L203.99 6.83638L203.85 6.73687C200.255 4.3291 196.024 3.04343 191.695 3.04343C187.366 3.04343 183.134 4.3291 179.539 6.73687C176.15 9.22463 174.466 12.19 174.466 15.6928C174.466 19.1956 176.16 22.1511 179.539 24.6488C183.08 27.148 187.346 28.4171 191.68 28.261C196.036 28.3895 200.315 27.0892 203.86 24.5592L204 24.4597L196.943 19.2852Z" fill="#44392E"/>
<path d="M173.798 3.75156H163.83V27.3953H173.798V3.75156Z" fill="#44392E"/>
<path fill-rule="evenodd" clip-rule="evenodd" d="M163.8 9.13508C162.186 7.13696 160.081 5.59068 157.69 4.64715C155.055 3.53025 152.219 2.96465 149.357 2.98533C145.153 2.87721 141.028 4.13818 137.605 6.57766C134.365 8.95596 132.711 11.8517 132.711 15.1853C132.711 18.5189 134.355 21.4147 137.605 23.793C141.028 26.2325 145.153 27.4934 149.357 27.3853H161.478V14.8171H151.51V20.0813H149.347C147.663 20.126 146.01 19.6192 144.642 18.6383C144.05 18.2743 143.558 17.769 143.21 17.168C142.862 16.567 142.669 15.8891 142.648 15.1953C142.664 14.5002 142.854 13.8203 143.203 13.2184C143.551 12.6165 144.046 12.1122 144.642 11.7522C146.022 10.7986 147.669 10.3041 149.347 10.3392C150.432 10.2891 151.514 10.4821 152.514 10.9039C153.515 11.3258 154.408 11.9659 155.128 12.7772L163.8 9.13508Z" fill="#44392E"/>
<path fill-rule="evenodd" clip-rule="evenodd" d="M137.744 27.3953L117.291 1.36329L96.8367 27.3953H108.399L109.994 25.4051H124.527L126.222 27.3953H137.744ZM115.815 18.0114L117.32 16.0809L118.826 18.0114H115.815Z" fill="#44392E"/>
<path fill-rule="evenodd" clip-rule="evenodd" d="M96.8367 2.2987L79.443 16.7576L62.1888 2.22904V27.3953H72.1566V20.7679L79.3932 28.052L86.869 20.6982V27.3953H96.8367V2.2987Z" fill="#44392E"/>
</svg>
