<svg width="18" height="18" viewBox="0 0 18 18" fill="none" xmlns="http://www.w3.org/2000/svg">
<path d="M13.0405 16.5063C7.38532 15.0666 2.93339 10.6147 1.49371 4.95952C0.948693 2.81867 2.79086 0.999999 5 0.999999L6 1C6.55228 1 6.99474 1.44883 7.04922 1.99842C7.14126 2.92696 7.36032 3.81815 7.68877 4.65437L6.16948 6.17366C7.35201 8.6447 9.35529 10.648 11.8263 11.8305L13.3456 10.3112C14.1818 10.6397 15.073 10.8587 16.0016 10.9508C16.5512 11.0053 17 11.4477 17 12L17 13C17 15.2091 15.1813 17.0513 13.0405 16.5063Z" stroke="#692F0F" stroke-width="2" stroke-linecap="round" stroke-linejoin="round"/>
</svg>
